# Blender 3.4.1
# www.blender.org
o Arrow
v 0.000000 0.000000 -1.125000
v 0.219477 0.000000 -1.103383
v 0.430519 0.000000 -1.039364
v 0.625017 0.000000 -0.935403
v 0.795495 0.000000 -0.795495
v 0.935403 0.000000 -0.625017
v 1.039364 0.000000 -0.430519
v 1.103383 0.000000 -0.219477
v 1.125000 0.000000 -0.000000
v 1.103383 -0.000000 0.219477
v 1.039364 -0.000000 0.430519
v 0.935403 -0.000000 0.625017
v 0.795495 -0.000000 0.795495
v 0.625017 -0.000000 0.935403
v 0.430519 -0.000000 1.039364
v 0.219477 -0.000000 1.103383
v 0.000000 -0.000000 1.125000
v -0.219477 -0.000000 1.103383
v -0.430519 -0.000000 1.039364
v -0.625017 -0.000000 0.935403
v -0.795495 -0.000000 0.795495
v -0.935403 -0.000000 0.625017
v -1.039364 -0.000000 0.430519
v -1.103383 -0.000000 0.219477
v -1.125000 0.000000 -0.000000
v -1.103383 0.000000 -0.219477
v -1.039364 0.000000 -0.430519
v -0.935403 0.000000 -0.625017
v -0.795495 0.000000 -0.795495
v -0.625017 0.000000 -0.935403
v -0.430519 0.000000 -1.039364
v -0.219477 0.000000 -1.103383
v 0.000000 1.000000 0.000000
vn -0.0000 0.7474 -0.6644
vn -0.0000 1.0000 -0.0000
vn 0.1296 0.7474 -0.6516
vn 0.2542 0.7474 -0.6138
vn 0.3691 0.7474 -0.5524
vn 0.4698 0.7474 -0.4698
vn 0.5524 0.7474 -0.3691
vn 0.6138 0.7474 -0.2542
vn 0.6516 0.7474 -0.1296
vn 0.6644 0.7474 -0.0000
vn 0.6516 0.7474 0.1296
vn 0.6138 0.7474 0.2542
vn 0.5524 0.7474 0.3691
vn 0.4698 0.7474 0.4698
vn 0.3691 0.7474 0.5524
vn 0.2542 0.7474 0.6138
vn 0.1296 0.7474 0.6516
vn -0.0000 0.7474 0.6644
vn -0.1296 0.7474 0.6516
vn -0.2542 0.7474 0.6138
vn -0.3691 0.7474 0.5524
vn -0.4698 0.7474 0.4698
vn -0.5524 0.7474 0.3691
vn -0.6138 0.7474 0.2542
vn -0.6516 0.7474 0.1296
vn -0.6644 0.7474 -0.0000
vn -0.6516 0.7474 -0.1296
vn -0.6138 0.7474 -0.2542
vn -0.5524 0.7474 -0.3691
vn -0.4698 0.7474 -0.4698
vn -0.3691 0.7474 -0.5524
vn -0.2542 0.7474 -0.6138
vn -0.0000 -1.0000 -0.0000
vn -0.1296 0.7474 -0.6516
s 1
f 1//1 33//2 2//3
f 2//3 33//2 3//4
f 3//4 33//2 4//5
f 4//5 33//2 5//6
f 5//6 33//2 6//7
f 6//7 33//2 7//8
f 7//8 33//2 8//9
f 8//9 33//2 9//10
f 9//10 33//2 10//11
f 10//11 33//2 11//12
f 11//12 33//2 12//13
f 12//13 33//2 13//14
f 13//14 33//2 14//15
f 14//15 33//2 15//16
f 15//16 33//2 16//17
f 16//17 33//2 17//18
f 17//18 33//2 18//19
f 18//19 33//2 19//20
f 19//20 33//2 20//21
f 20//21 33//2 21//22
f 21//22 33//2 22//23
f 22//23 33//2 23//24
f 23//24 33//2 24//25
f 24//25 33//2 25//26
f 25//26 33//2 26//27
f 26//27 33//2 27//28
f 27//28 33//2 28//29
f 28//29 33//2 29//30
f 29//30 33//2 30//31
f 30//31 33//2 31//32
f 1//33 2//33 3//33 4//33 5//33 6//33 7//33 8//33 9//33 10//33 11//33 12//33 13//33 14//33 15//33 16//33 17//33 18//33 19//33 20//33 21//33 22//33 23//33 24//33 25//33 26//33 27//33 28//33 29//33 30//33 31//33 32//33
f 31//32 33//2 32//34
f 32//34 33//2 1//1
